# xmcd
#
# Track frame offsets:
#	150
#	13405
#	29923
#	49153
#	66587
#	81017
#	98980
#	109271
#	123425
#	140984
#	158644
#	175027
#	192823
#	213393
#	230228
#	250691
#	279589
#	298229
#	319565
#	335610
#
# Disc length: 4753 seconds
#
# Revision: 1
# Processed by: cddbd v1.5PL3 Copyright (c) Steve Scherf et al.
# Submitted via: audiograbber 1.80
#
DISCID=3c128f14
DTITLE=Garou - Reviens
DYEAR=1900
DGENRE=
TTITLE0=Passe ta route
TTITLE1=Et si on dormaint
TTITLE2=Heminguay
TTITLE3=L`avru
TTITLE4=Reviens (ou te caches-tu?)
TTITLE5=Pour l`amour d`une femme
TTITLE6=Pendant que mes cheveux poussent
TTITLE7=Les filles
TTITLE8=Le sucre et le sel
TTITLE9=Quand passe la passion
TTITLE10=Au coeur de la terre
TTITLE11=Priere indienne
TTITLE12=Tout cet amour la
TTITLE13=Ne me parlez plus d`elle
TTITLE14=Ton premier regard
TTITLE15=Une derniere fois encore
TTITLE16=Gitau
TTITLE17=Seul
TTITLE18=Sous le vent (en duo avec Celine Dion)
TTITLE19=Au plasir de ton corps
EXTD=+bonus tracks
EXTT0=
EXTT1=
EXTT2=
EXTT3=
EXTT4=
EXTT5=
EXTT6=
EXTT7=
EXTT8=
EXTT9=
EXTT10=
EXTT11=
EXTT12=
EXTT13=
EXTT14=
EXTT15=
EXTT16=+bonus tracks
EXTT17=+bonus tracks
EXTT18=+bonus tracks
EXTT19=+bonus tracks
PLAYORDER=
